<?xml version="1.0" standalone="no"?>
<!DOCTYPE svg PUBLIC "-//W3C//DTD SVG 20010904//EN"
 "http://www.w3.org/TR/2001/REC-SVG-20010904/DTD/svg10.dtd">
<svg version="1.0" xmlns="http://www.w3.org/2000/svg"
 width="500.000000pt" height="500.000000pt" viewBox="0 0 500.000000 500.000000"
 preserveAspectRatio="xMidYMid meet">

<g transform="translate(0.000000,500.000000) scale(0.100000,-0.100000)"
fill="#000000" stroke="none">
<path d="M0 2500 l0 -2500 2500 0 2500 0 0 2500 0 2500 -2500 0 -2500 0 0
-2500z m2755 1485 c65 -8 125 -15 132 -15 7 0 13 -7 13 -16 0 -10 -6 -14 -17
-10 -10 2 -46 8 -79 11 l-61 7 -6 -34 c-4 -18 -13 -98 -22 -178 -19 -164 -21
-178 -35 -164 -7 7 -3 67 10 170 29 231 34 210 -55 219 -55 5 -75 11 -75 21 0
11 9 13 38 9 20 -3 91 -12 157 -20z m-377 -20 c33 -28 48 -65 27 -65 -8 0 -17
9 -20 20 -4 11 -20 27 -36 35 -26 14 -39 14 -122 1 -71 -12 -96 -20 -109 -37
-23 -28 -23 -81 0 -110 21 -25 39 -27 172 -15 78 8 87 7 112 -13 39 -31 53
-80 34 -124 -19 -47 -47 -63 -133 -76 -115 -17 -131 -15 -169 23 -19 19 -34
39 -34 45 0 20 25 12 35 -11 18 -41 51 -48 148 -34 102 15 137 38 137 92 0 47
-51 88 -99 80 -20 -3 -68 -9 -106 -12 -66 -6 -72 -5 -102 20 -56 47 -53 124 7
167 27 20 105 36 182 38 36 1 53 -5 76 -24z m-422 -167 c58 -139 63 -178 32
-238 -57 -111 -193 -131 -278 -40 -32 33 -120 224 -120 258 0 34 21 0 69 -114
47 -109 59 -129 92 -151 33 -22 47 -25 95 -21 47 4 61 10 91 40 29 29 37 45
41 87 5 53 3 58 -62 209 -25 59 -31 82 -22 82 8 0 34 -47 62 -112z m1277 -60
c14 -259 4 -400 -19 -266 l-9 51 -105 43 -105 44 -35 -35 c-20 -20 -40 -32
-43 -28 -7 7 291 313 304 313 3 0 9 -55 12 -122z m307 -37 c0 -5 -45 -69 -100
-142 -55 -72 -98 -134 -96 -136 2 -3 97 16 210 41 203 45 256 53 256 38 0 -4
-51 -18 -112 -31 -62 -13 -119 -26 -126 -29 -10 -4 -12 -32 -6 -136 5 -107 4
-129 -7 -119 -8 8 -14 51 -17 124 -3 69 -9 112 -16 115 -6 2 -60 -6 -119 -19
-59 -13 -110 -20 -113 -16 -6 10 224 319 237 319 5 0 9 -4 9 -9z m-2065 -55
c35 -15 65 -59 65 -96 0 -41 -30 -77 -119 -145 -50 -38 -91 -72 -91 -75 0 -4
25 -39 55 -78 34 -44 51 -73 45 -77 -6 -4 -12 -5 -14 -4 -1 2 -55 73 -120 156
-64 84 -115 157 -111 162 8 15 172 141 203 157 34 17 44 17 87 0z m-346 -340
c52 -27 66 -97 30 -155 l-20 -34 122 8 c112 6 122 6 110 -9 -10 -12 -33 -16
-95 -17 -143 -1 -160 -7 -206 -68 -22 -30 -37 -58 -33 -61 6 -5 106 -80 142
-106 1 -2 0 -7 -4 -13 -6 -11 -325 222 -325 238 0 15 152 206 173 218 30 17
72 16 106 -1z m2911 -67 c0 -8 -192 -360 -206 -378 -1 -1 -8 0 -13 4 -8 4 -3
20 13 47 l24 41 -61 81 c-34 44 -67 86 -73 94 -8 12 -17 12 -52 1 -31 -9 -46
-9 -54 -1 -8 8 -3 13 18 18 16 4 110 29 209 55 210 55 195 52 195 38z m-1535
-299 c13 11 15 6 15 -34 0 -39 -3 -46 -19 -46 -42 0 -51 11 -51 58 0 44 0 45
20 27 16 -15 22 -15 35 -5z m-1723 4 c4 -3 -21 -71 -53 -151 -33 -80 -57 -148
-54 -152 14 -13 140 -59 147 -53 3 4 21 43 38 87 32 81 45 103 55 93 3 -3 -10
-45 -29 -94 -20 -48 -36 -93 -36 -98 0 -6 32 -24 72 -39 56 -22 73 -25 80 -15
6 11 76 180 109 267 7 17 13 21 20 14 7 -7 -10 -59 -52 -164 -35 -85 -64 -156
-66 -159 -3 -3 -361 137 -372 147 -6 5 122 323 130 323 3 0 8 -3 11 -6z m1578
-83 c55 -11 105 -23 110 -26 6 -4 10 -131 10 -342 l0 -335 -27 5 c-16 2 -71
12 -123 22 -131 23 -279 18 -337 -13 l-43 -22 0 339 c0 374 -4 351 67 377 57
20 225 17 343 -5z m653 -6 l37 -19 0 -343 0 -342 -37 22 c-71 41 -300 33 -490
-19 l-23 -6 0 340 0 341 93 20 c50 11 101 22 112 25 11 3 76 4 145 2 99 -2
133 -6 163 -21z m1284 -58 c9 -10 -298 -318 -310 -310 -5 3 7 22 26 42 l36 36
-44 105 -43 105 -48 5 c-28 3 -49 11 -52 19 -4 11 31 13 211 9 119 -2 220 -7
224 -11z m-1197 -406 l0 -308 -24 -11 c-19 -8 -32 -6 -67 11 -70 35 -217 30
-383 -12 l-128 -33 -92 26 c-187 52 -334 58 -416 16 -31 -16 -45 -18 -60 -10
-19 10 -20 20 -18 323 l3 312 2 -281 c4 -323 4 -324 74 -285 78 44 242 45 423
2 l83 -20 119 25 c80 16 154 25 226 26 99 0 112 -2 162 -27 30 -15 59 -24 65
-21 8 5 11 98 11 297 0 191 3 288 10 284 6 -4 10 -120 10 -314z m1288 49 c-13
-15 -86 -97 -163 -181 -133 -145 -138 -152 -105 -146 19 3 99 14 178 23 127
15 166 15 150 -1 -9 -10 -392 -55 -399 -47 -4 4 64 86 151 182 88 96 158 175
157 176 -1 1 -78 -9 -172 -21 -95 -13 -174 -19 -179 -14 -6 5 -4 10 5 14 22 8
383 52 392 48 4 -3 -3 -17 -15 -33z m-3639 4 c44 -32 51 -68 35 -190 -8 -60
-12 -114 -10 -120 3 -7 40 -15 84 -19 77 -7 113 -18 100 -30 -6 -6 -397 40
-404 48 -3 3 23 209 32 249 13 64 108 100 163 62z m201 -926 c27 -22 49 -23
78 -2 19 13 22 24 22 79 0 35 5 67 10 70 14 9 13 -101 -2 -128 -16 -31 -39
-46 -68 -46 -53 0 -81 44 -79 126 l2 58 7 -69 c5 -55 12 -73 30 -88z m301 63
l54 -63 6 78 5 79 2 -92 c1 -51 0 -93 -2 -93 -2 0 -33 34 -68 75 l-63 76 -6
-78 -5 -78 -2 95 c-2 79 0 92 11 80 8 -8 38 -44 68 -79z m189 -1 c0 -53 -4
-90 -10 -90 -11 0 -14 162 -3 173 12 13 13 7 13 -83z m145 11 c15 -39 31 -71
34 -71 3 0 19 32 35 70 16 39 33 73 38 76 5 3 2 -11 -7 -33 -9 -21 -26 -62
-38 -90 -12 -29 -25 -53 -28 -53 -3 0 -13 17 -21 38 -51 125 -57 143 -50 138
5 -3 21 -37 37 -75z m305 70 l-75 -6 0 -35 c0 -34 1 -35 45 -41 l45 -6 -47 -1
c-48 -2 -48 -2 -48 -37 l0 -34 78 -4 77 -3 -82 -2 -83 -2 0 90 0 90 83 -2 82
-2 -75 -5z m304 -7 c9 -8 16 -23 16 -31 0 -21 -29 -53 -48 -53 -9 0 -3 -12 17
-35 17 -20 31 -39 31 -43 -1 -4 -18 12 -38 36 -29 33 -44 42 -69 42 -30 0 -32
-2 -36 -42 -2 -24 -4 -1 -5 50 l-2 92 59 0 c41 0 65 -5 75 -16z m257 6 c10 -6
19 -17 19 -25 0 -11 -5 -10 -20 5 -34 34 -120 19 -120 -20 0 -21 34 -40 74
-40 46 0 66 -13 66 -45 0 -33 -20 -45 -71 -45 -47 0 -79 18 -79 43 0 6 7 1 16
-11 12 -17 25 -22 58 -22 47 0 70 17 64 47 -2 14 -16 19 -54 23 -78 8 -105 41
-67 82 18 20 82 25 114 8z m136 -127 c-2 -27 -3 -5 -3 47 0 52 1 74 3 48 2
-27 2 -69 0 -95z m231 130 l-38 -4 0 -85 c0 -49 -4 -84 -10 -84 -6 0 -10 35
-10 84 l0 85 -37 4 c-21 2 0 4 47 4 47 0 68 -2 48 -4z m523 -3 c10 -6 19 -17
19 -25 0 -11 -5 -10 -20 5 -34 34 -120 19 -120 -20 0 -21 34 -40 74 -40 46 0
66 -13 66 -45 0 -33 -20 -45 -71 -45 -47 0 -79 18 -79 43 0 6 7 1 16 -11 12
-17 25 -22 58 -22 47 0 70 17 64 47 -2 14 -16 19 -54 23 -78 8 -105 41 -67 82
18 20 82 25 114 8z m405 0 c15 -6 25 -13 22 -16 -3 -2 -17 0 -32 5 -52 21
-115 -31 -102 -84 15 -58 55 -75 121 -51 20 8 20 7 1 -8 -31 -25 -74 -20 -107
13 -33 33 -38 74 -13 109 26 38 65 49 110 32z m144 -80 c0 -53 -4 -90 -10 -90
-11 0 -14 162 -3 173 12 13 13 7 13 -83z m230 75 c30 -17 22 -19 -16 -5 -79
30 -139 -66 -78 -127 25 -25 48 -27 99 -9 20 8 20 7 1 -8 -51 -42 -136 3 -136
71 0 25 8 43 29 64 32 32 62 36 101 14z m-1080 1 c0 -2 16 -41 35 -85 19 -45
30 -81 26 -81 -5 0 -11 9 -14 20 -4 17 -14 20 -55 20 -40 0 -53 -4 -66 -22
-15 -22 -15 -21 -3 12 34 85 60 140 68 140 5 0 9 -2 9 -4z"/>
<path d="M3111 3726 c-52 -53 -93 -97 -90 -99 12 -9 183 -77 186 -74 2 3 2 63
1 136 l-3 131 -94 -94z"/>
<path d="M1333 3578 c-38 -29 -82 -63 -97 -75 l-28 -23 33 -42 c18 -24 41 -53
52 -65 l20 -22 66 51 c116 90 131 108 131 149 0 29 -6 42 -26 58 -43 34 -75
27 -151 -31z"/>
<path d="M1043 3290 c-24 -10 -164 -190 -157 -202 3 -4 32 -28 64 -53 l60 -46
75 101 c44 60 75 111 75 125 0 51 -68 95 -117 75z"/>
<path d="M3858 3178 l-118 -30 18 -23 c9 -13 37 -50 62 -84 25 -33 47 -61 51
-61 3 0 15 19 27 43 11 23 40 75 62 115 26 44 36 72 28 71 -7 0 -66 -14 -130
-31z"/>
<path d="M3994 2763 c33 -87 71 -173 77 -171 4 2 46 45 94 96 l87 92 -132 0
c-122 0 -132 -1 -126 -17z"/>
<path d="M648 2429 c-10 -5 -22 -18 -28 -29 -10 -19 -44 -239 -37 -246 6 -7
149 -24 156 -19 12 7 35 219 27 249 -10 42 -79 68 -118 45z"/>
<path d="M2070 1620 l0 -40 46 0 c55 0 84 14 84 40 0 26 -29 40 -84 40 l-46 0
0 -40z"/>
<path d="M3008 1597 c-10 -23 -18 -46 -18 -50 0 -4 18 -7 41 -7 37 0 40 2 33
23 -7 23 -33 77 -37 77 -1 0 -10 -19 -19 -43z"/>
</g>
</svg>
